<?xml version="1.0" encoding="iso-8859-1"?>
<!-- Generator: Adobe Illustrator 19.0.0, SVG Export Plug-In . SVG Version: 6.00 Build 0)  -->
<svg version="1.1" id="Capa_1" xmlns="http://www.w3.org/2000/svg" xmlns:xlink="http://www.w3.org/1999/xlink" x="0px" y="0px"
	 viewBox="0 0 512 512" style="enable-background:new 0 0 512 512;" xml:space="preserve">
<polygon style="fill:#57555C;" points="327.86,395.79 327.86,395.78 183.64,395.78 183.64,395.79 125.75,502 385.75,502 "/>
<path style="fill:#F0E6DE;" d="M281.28,31.71h-51.06C137.48,44.22,65.75,123.89,65.75,220c0,104.772,85.247,190,190,190
	c104.767,0,190-85.242,190-190C445.75,123.89,374.02,44.22,281.28,31.71z"/>
<path style="fill:#4DBBEB;" d="M295.75,10c-48.708,73.062-38.579,57.868-40,60c-1.422-2.132,8.709,13.064-40-60H295.75z"/>
<path style="fill:#F0E6DE;" d="M295.75,220c0,22.079-17.919,40-40,40c-22.079,0-40-17.919-40-40c0-22.079,17.919-40,40-40
	C277.829,180,295.75,197.919,295.75,220z"/>
<path style="fill:#FD6244;" d="M295.75,220h110c0,41.36-16.82,78.86-43.98,106.02l-77.74-77.74
	C291.27,241.04,295.75,231.04,295.75,220z"/>
<path style="fill:#FEDB51;" d="M284.03,248.28l77.74,77.74C334.61,353.18,297.11,370,255.75,370V260
	C266.79,260,276.79,255.52,284.03,248.28z"/>
<g>
	<path style="fill:#FD6244;" d="M255.75,260v110c-41.36,0-78.86-16.82-106.02-43.98l77.74-77.74
		C234.71,255.52,244.71,260,255.75,260z"/>
	<path style="fill:#FD6244;" d="M149.73,113.98l77.74,77.74c-7.24,7.24-11.72,17.24-11.72,28.28h-110
		C105.75,178.64,122.57,141.14,149.73,113.98z"/>
</g>
<g>
	<path style="fill:#FEDB51;" d="M227.47,248.28l-77.74,77.74c-27.16-27.16-43.98-64.66-43.98-106.02h110
		C215.75,231.04,220.23,241.04,227.47,248.28z"/>
	<path style="fill:#FEDB51;" d="M255.75,70v110c-11.04,0-21.04,4.48-28.28,11.72l-77.74-77.74C176.89,86.82,214.39,70,255.75,70z"/>
</g>
<path style="fill:#FD6244;" d="M361.77,113.98l-77.74,77.74c-7.24-7.24-17.24-11.72-28.28-11.72V70
	C297.11,70,334.61,86.82,361.77,113.98z"/>
<path style="fill:#FEDB51;" d="M405.75,220h-110c0-11.04-4.48-21.04-11.72-28.28l77.74-77.74
	C388.93,141.14,405.75,178.64,405.75,220z"/>
<path d="M256,446c-5.52,0-10,4.48-10,10s4.48,10,10,10c5.52,0,10-4.48,10-10S261.52,446,256,446z"/>
<path d="M56,220c0,79.052,46.211,148.161,113.927,180.514l-52.707,96.7c-1.689,3.099-1.62,6.858,0.182,9.893S122.471,512,126,512
	h260c3.529,0,6.796-1.859,8.598-4.894s1.871-6.794,0.182-9.893l-52.707-96.7C409.785,368.162,456,299.058,456,220
	c0-94.684-66.552-175.728-157.666-195.473l5.986-8.981c2.045-3.068,2.236-7.014,0.496-10.265C303.076,2.029,299.688,0,296,0h-80
	c-3.688,0-7.076,2.029-8.816,5.281c-1.74,3.251-1.55,7.196,0.496,10.265l5.987,8.981C122.591,44.263,56,125.277,56,220z
	 M142.839,492l14.171-26H216c5.523,0,10-4.478,10-10s-4.477-10-10-10h-48.088l20.57-37.739C210.094,416.05,232.762,420,256,420
	c23.239,0,45.908-3.951,67.518-11.739L344.088,446H296c-5.523,0-10,4.478-10,10s4.477,10,10,10h58.989l14.171,26H142.839z
	 M395.645,210h-90.644c-1.27-6.283-3.736-12.233-7.284-17.575l64.054-64.053C381.728,151.326,393.514,179.727,395.645,210z
	 M164.372,325.77l64.054-64.053c5.342,3.548,11.291,6.014,17.575,7.284v90.644C215.728,357.513,187.327,345.728,164.372,325.77z
	 M116.355,230h90.644c1.27,6.283,3.736,12.233,7.284,17.575l-64.054,64.053C130.272,288.674,118.486,260.273,116.355,230z M286,220
	c0,16.546-13.432,30-30,30s-30-13.429-30-30c0-16.546,13.432-30,30-30S286,203.429,286,220z M246,170.999
	c-6.283,1.27-12.232,3.735-17.575,7.283l-64.053-64.052C187.327,94.272,215.728,82.487,246,80.355V170.999z M150.23,128.372
	l64.054,64.053c-3.548,5.343-6.014,11.292-7.284,17.575h-90.644C118.486,179.727,130.272,151.327,150.23,128.372z M266,269.001
	c6.283-1.27,12.232-3.735,17.575-7.283l64.053,64.052c-22.955,19.958-51.356,31.744-81.628,33.875L266,269.001L266,269.001z
	 M361.77,311.628l-64.054-64.053c3.548-5.343,6.014-11.392,7.284-17.675h90.644C393.514,260.173,381.728,288.673,361.77,311.628z
	 M283.575,178.283c-5.342-3.548-11.291-6.014-17.575-7.284V80.355c30.272,2.131,58.673,13.917,81.628,33.875L283.575,178.283z
	 M277.317,20L256,51.974L234.683,20H277.317z M225.692,42.565l12.297,18.447C158.79,69.858,96,137.297,96,220
	c0,88.174,71.689,160,160,160c88.174,0,160-71.689,160-160c0-82.6-62.69-150.13-141.988-158.988l12.299-18.446
	C372.073,57.165,436,132.361,436,220c0,100.209-81.255,180-180,180c-98.525,0-180-79.589-180-180
	C76,132.36,139.928,57.163,225.692,42.565z"/>
<g>
</g>
<g>
</g>
<g>
</g>
<g>
</g>
<g>
</g>
<g>
</g>
<g>
</g>
<g>
</g>
<g>
</g>
<g>
</g>
<g>
</g>
<g>
</g>
<g>
</g>
<g>
</g>
<g>
</g>
</svg>
